<svg width="36" height="36" viewBox="0 0 36 36" fill="none" xmlns="http://www.w3.org/2000/svg">
<g clip-path="url(#clip0_1862_5776)">
<path d="M17.1667 11.3332H13.6667C12.2666 11.3332 11.5665 11.3332 11.0317 11.6057C10.5613 11.8454 10.1789 12.2278 9.93917 12.6982C9.66669 13.233 9.66669 13.9331 9.66669 15.3332V22.3332C9.66669 23.7333 9.66669 24.4334 9.93917 24.9682C10.1789 25.4386 10.5613 25.821 11.0317 26.0607C11.5665 26.3332 12.2666 26.3332 13.6667 26.3332H20.6667C22.0668 26.3332 22.7669 26.3332 23.3017 26.0607C23.7721 25.821 24.1545 25.4386 24.3942 24.9682C24.6667 24.4334 24.6667 23.7333 24.6667 22.3332V18.8332M14.6667 21.3332H16.0621C16.4698 21.3332 16.6736 21.3332 16.8654 21.2871C17.0355 21.2463 17.198 21.179 17.3472 21.0876C17.5154 20.9845 17.6595 20.8404 17.9477 20.5521L25.9167 12.5832C26.607 11.8928 26.607 10.7736 25.9167 10.0832C25.2263 9.39284 24.107 9.39284 23.4167 10.0832L15.4477 18.0521C15.1595 18.3404 15.0153 18.4845 14.9123 18.6527C14.8209 18.8018 14.7535 18.9644 14.7127 19.1345C14.6667 19.3263 14.6667 19.5301 14.6667 19.9378V21.3332Z" stroke="#475467" stroke-width="1.66667" stroke-linecap="round" stroke-linejoin="round"/>
</g>
<defs>
<clipPath id="clip0_1862_5776">
<rect width="20" height="20" fill="white" transform="translate(8 8)"/>
</clipPath>
</defs>
</svg>
